<?xml version="1.0" encoding="UTF-8"?>
<svg width="79px" height="84px" viewBox="0 0 79 84" version="1.1" xmlns="http://www.w3.org/2000/svg" xmlns:xlink="http://www.w3.org/1999/xlink">
    <!-- Generator: Sketch 54.1 (76490) - https://sketchapp.com -->
    <title>logo_web_login@3x</title>
    <desc>Created with Sketch.</desc>
    <defs>
        <polygon id="path-1" points="78.9719243 0 0 0 2.03495684e-14 83.8479367 78.9719243 83.8479367"></polygon>
    </defs>
    <g id="v2" stroke="none" stroke-width="1" fill="none" fill-rule="evenodd">
        <g id="Login(W)" transform="translate(-561.000000, -148.000000)">
            <g id="logo_web_login" transform="translate(561.000000, 148.000000)">
                <mask id="mask-2" fill="white">
                    <use xlink:href="#path-1"></use>
                </mask>
                <g id="Clip-2"></g>
                <path d="M39.4851735,4.34484334 C59.0578864,4.34484334 75.1014196,19.0684437 76.6476341,37.7863404 C76.044164,38.5775349 75.1883281,38.9984728 74.2403785,39.2063608 C70.9208202,39.903075 69.8996845,37.0425425 67.1380126,35.231774 C64.3678233,33.4188155 61.8271293,32.7256991 59.2629338,30.1939707 C58.2332808,29.1722067 57.9695584,27.4293263 56.9446372,26.3615736 C55.5805994,24.9202794 54.7492114,24.5273414 52.8966877,23.8070072 C49.6457413,22.554048 46.8542587,21.6244179 44.1528391,19.415393 C43.6955836,19.0465443 42.6217666,18.5559975 41.6189274,18.3709474 C41.1899054,18.2786571 40.9993691,18.3474838 40.8545741,18.5092266 C40.4522082,19.0230806 40.0834385,19.6465882 39.7252366,20.2300511 C39.626183,20.3910118 39.2932177,20.8574692 39.0225552,21.111346 C38.5020505,21.577647 37.8490536,22.1790987 37.3484227,22.4564392 C34.6309148,24.1070291 31.0492114,25.5021781 29.5029968,28.2660403 C29.2157729,28.7739502 26.2504732,30.1470434 25.5662461,30.678417 C24.4886435,31.5611197 23.4317035,32.4211409 22.3244479,33.2336091 C21.287224,34.0014963 19.8537855,35.1850031 18.7731861,35.9754154 C18.2023659,35.7676839 17.6171924,35.5824774 17.0783912,35.4895613 C15.8050473,35.231774 14.7350158,34.2561552 13.6400631,33.6084019 C12.2370662,32.7256991 12.3422713,32.6335652 11.8995268,32.3749957 C11.5115142,32.1672641 11.3211356,32.028985 11.1709779,31.9593761 C10.1269716,31.3532317 10.064511,31.9593761 8.5829653,32.8639783 C7.34842271,33.6084019 5.92492114,34.8615175 4.8626183,35.8598178 C4.01671924,36.6496045 3.15567823,37.486162 2.27160883,38.3463396 C3.53974763,19.3459405 19.7105678,4.34484334 39.4851735,4.34484334 L39.4851735,4.34484334 Z M9.30615142,62.1760284 C6.43785489,58.3215754 4.32160883,53.9080618 3.1670347,49.1014537 C3.5,49.1709061 3.90236593,49.2866602 4.56687697,49.4936096 C6.76088328,50.1920444 10.8988959,51.5365119 13.8793375,50.1920444 C15.7730284,49.3093417 19.0705047,48.5882253 20.3376972,48.1023712 C21.534858,47.6126065 24.0641956,48.7031973 21.0777603,46.7525853 L21.0632492,46.7525853 C21.0242902,46.7306859 20.977918,46.7064402 20.9100946,46.6837586 C20.8116719,46.6376134 20.7141956,46.6143062 20.6028391,46.5908425 C20.311041,46.5212337 17.9159306,46.9837806 17.3862776,46.9151103 C17.2194006,46.8689651 17.0608833,46.8220378 16.9023659,46.7306859 C15.6037855,46.0322511 21.1477918,41.7388714 21.3305994,40.6656438 C19.7388013,40.832705 18.4257098,41.8310054 17.0022082,42.455295 C15.3294953,43.1762549 13.4921136,43.1989365 11.7006309,43.221618 C9.64984227,43.221618 8.05488959,44.8027556 6.25268139,45.5244976 C5.30993691,45.9174356 3.7637224,46.2673569 2.71971609,46.9384175 C2.64353312,46.4985522 2.57570978,46.0557148 2.51782334,45.6166316 C2.55047319,44.8487443 2.63359621,43.9192707 2.82492114,42.8521437 C3.23564669,40.5273646 4.18596215,38.715814 6.30299685,35.9294267 C6.30299685,35.9294267 8.36656151,33.4701227 9.56750789,32.6795539 C10.035489,32.3523142 10.5414826,31.9140131 11.0383281,32.2132529 C11.5641956,32.5412748 10.8935331,34.5607134 12.3011041,34.9076627 C13.15,35.0927127 12.4009464,36.4878617 12.6943218,37.301112 C13.005205,38.1611332 9.19195584,41.4804583 10.1985804,41.8763684 C10.7578864,42.1085022 13.2856467,40.832705 14.6253943,40.411767 C15.8080442,40.0421362 17.0662461,40.0194547 18.3616719,38.8087301 C19.6960568,37.5784524 21.0182965,36.8815818 21.0182965,36.8815818 C22.1026814,35.9754154 23.1566246,35.046724 24.2280757,34.1405576 C25.272082,33.2336091 26.2711356,32.3055433 27.2823344,31.3766954 C27.9164038,30.7758693 30.7801262,29.1948882 31.0332808,28.6589783 C32.366877,25.8029822 35.844795,24.1297107 38.4320189,22.31816 C38.9059937,21.9940487 39.4211356,21.296396 39.7130915,20.903458 C40.0070978,20.5073915 40.3165615,19.9057834 40.4865931,19.716197 C40.8149842,19.3459405 40.8973186,19.0684437 41.2652997,18.8840194 C41.4124606,18.8100306 41.9968454,18.8100306 42.2484227,19.0926895 C43.0919558,19.9753922 44.2395899,20.7424973 44.2807571,21.6705631 C44.351735,23.1087288 48.4141956,24.3648165 49.3392744,25.4794966 C49.720347,25.9420434 49.9429022,26.3842551 50.1014196,26.823964 C49.3919558,26.5466236 48.6946372,26.1998308 48.0758675,25.756837 C47.6659306,25.4560329 46.7102524,25.5256417 46.2201893,25.4560329 C44.8165615,25.1976198 45.1419558,25.8491273 45.9176656,26.638914 C46.7124606,27.4754715 47.6361199,28.1731242 48.3616719,29.0799163 C49.1998423,30.1016803 49.1228707,30.9383943 49.3477918,32.1672641 C49.5968454,33.4701227 50.3826498,34.6074843 51.0264984,35.7676839 C51.6810726,36.9269449 51.635489,38.1611332 51.9973186,39.4140924 C52.3899054,40.6656438 53.465142,41.7155642 54.3567823,42.6442557 C55.1157729,43.4310702 56.8455836,45.3627548 57.7905363,44.9418168 C58.7949527,44.5260408 60.042429,45.7322292 60.4173502,45.3854363 C60.7976341,45.0574144 59.4121451,43.4537518 59.9425868,42.9685234 C60.4760252,42.4779766 62.7828076,43.2458638 63.257571,44.7104652 C63.7955836,46.4298819 63.7399054,46.5689431 63.6545741,47.797813 C63.5958991,48.6109069 63.2750789,49.2631965 62.7241325,49.8405589 C62.038959,50.51553 60.4523659,51.6521095 60.7648265,52.7940074 C62.220347,52.0269023 63.8039432,51.9574499 65.4294953,52.0035951 C67.0029968,52.0495838 68.1659306,51.3982327 69.2198738,50.2849605 C69.6862776,49.7944137 71.0260252,48.2414325 71.7888013,49.0320013 C72.2506309,49.4936096 70.8979495,51.3982327 72.3824921,51.0051383 C73.3708202,50.7467252 74.2525237,49.9833743 75.1487382,49.4936096 C75.3880126,49.3545483 75.6082019,49.2170513 75.7987382,49.07799 C74.629653,53.954207 72.4662461,58.460011 69.5239748,62.3612348 L70.6045741,63.2439375 C75.8329653,56.6023152 78.9719243,48.2414325 78.9719243,39.1602156 C78.9719243,17.5334513 61.2876972,0 39.4851735,0 C17.6780757,0 0,17.5334513 0,39.1602156 C0,48.1718237 3.07255521,56.4405724 8.22634069,63.0595132 L9.30615142,62.1760284 Z M25.3498423,62.2221735 C25.2880126,62.6377931 24.7012618,66.238995 24.0611987,70.2134254 C22.8861199,69.9542302 21.7154574,69.515147 20.4047319,68.7941871 C19.0985804,68.0738528 18.1086751,67.3339656 17.2764984,66.4747265 C20.3376972,63.8258362 23.1009464,61.4323869 23.4430599,61.1542644 C24.2684543,60.4566117 24.6722397,60.2948689 25.0563091,60.503539 C25.4335962,60.7106448 25.5135647,61.1542644 25.3498423,62.2221735 L25.3498423,62.2221735 Z M27.6260252,56.3944272 C27.6260252,56.3944272 27.5299685,56.3249747 27.4187697,56.2742932 C27.3135647,56.2281481 27.2343849,56.1813772 27.2252366,56.1586956 C27.2305994,56.1813772 27.2343849,56.1813772 27.2343849,56.1813772 C25.377918,55.1596132 23.5421136,55.2071662 21.4320189,56.7413764 C18.518612,58.8302675 4.48611987,70.6065198 4.48611987,70.6065198 L8.53580442,74.0217331 C8.53580442,74.0217331 10.7853312,72.0719033 13.542429,69.7003535 C14.8958991,70.8838602 16.4162461,71.9563057 18.1269716,72.9070531 C19.8241325,73.8365267 21.5577287,74.5537324 23.2785489,75.042715 C22.6940063,78.6439169 22.2184543,81.5695219 22.2184543,81.5695219 L27.2716088,83.1731846 C27.2716088,83.1731846 29.9518927,65.1257227 30.2056782,61.5714482 C30.3984227,58.9927924 29.4671924,57.4147833 27.6260252,56.3944272 L27.6260252,56.3944272 Z M36.698265,83.8479993 L41.9214511,83.8479993 L41.9214511,58.1371511 L36.698265,58.1371511 L36.698265,83.8479993 Z M58.0115142,68.8176507 C56.6970032,69.5386107 55.5280757,69.9542302 54.362776,70.2134254 C53.7310726,66.238995 53.1648265,62.6377931 53.0864353,62.2221735 C52.9317035,61.1542644 53.0078864,60.7339521 53.3911672,60.503539 C53.7646688,60.2948689 54.1753943,60.4566117 54.9900631,61.1542644 C55.3413249,61.4550684 58.1029968,63.8485177 61.1488959,66.4966259 C60.314511,67.3339656 59.3253943,68.0965344 58.0115142,68.8176507 L58.0115142,68.8176507 Z M51.2246057,56.1586956 C51.2162461,56.1813772 51.1317035,56.2281481 51.0189274,56.2742932 C50.9123028,56.3249747 50.8353312,56.3717456 50.8353312,56.3717456 C48.9888013,57.3928839 48.0408517,58.9685466 48.2260252,61.5472024 C48.4873817,65.1257227 51.1317035,83.1731846 51.1317035,83.1731846 L56.1917981,81.5695219 C56.1917981,81.5695219 55.723817,78.6439169 55.1485804,75.0661787 C56.8700315,74.5537324 58.6014196,73.8365267 60.314511,72.9070531 C62.0100946,71.9789873 63.5380126,70.8838602 64.8791798,69.7003535 C67.6370662,72.0945849 69.8935331,74.068504 69.8935331,74.068504 L73.942429,70.6532907 C73.942429,70.6532907 59.9312303,58.8302675 57.0223975,56.7413764 C54.9214511,55.2071662 53.077918,55.1596132 51.2246057,56.1586956 L51.2246057,56.1586956 Z M52.3135647,48.7953312 C51.4,47.0307079 48.1856467,48.4031753 46.5555205,46.9151103 C46.1074132,46.5212337 45.1533123,45.6627768 44.6679811,44.1966111 C44.2045741,42.8067806 43.5026814,41.6919441 42.3253943,40.787342 C40.2320189,39.1602156 35.2763407,36.6965318 35.6184543,33.3726703 C35.7731861,31.8899237 37.5777603,31.5845833 38.3146688,30.4939926 C38.762776,29.8704851 38.8252366,29.0104639 39.3541009,28.4277831 C39.9477918,27.7528119 39.1140379,27.7528119 38.5310726,27.7068232 C37.2843849,27.6614601 36.3539432,29.0104639 35.3175079,29.5651447 C33.6211356,30.4478474 32.0940063,31.7047173 30.1828076,32.1203368 C29.6211356,32.2367165 26.7626183,33.1194193 28.6274448,33.5865024 C29.9029968,33.9092059 31.3334385,33.8178541 32.3895899,34.7232384 C33.7484227,35.8824994 34.8541009,37.3705644 36.2182965,38.5313897 C36.9094637,39.1140705 37.5823344,39.6689077 38.1446372,40.3890855 C38.794795,41.225643 38.7100946,42.1779546 39.1902208,43.0381322 C39.6550473,43.8731255 40.5687697,43.1294841 41.1395899,43.5957851 C43.0044164,45.1260847 40.4102524,45.8698826 39.7403785,46.5908425 C38.8648265,47.5437798 38.6957413,48.1491421 37.0914826,48.7953312 C36.3828076,49.07799 31.7845426,49.6326709 31.2244479,50.0529832 C30.6567823,50.4693848 30.9547319,50.6084461 31.1009464,50.7701889 C31.2511041,50.936468 32.0383281,51.1903448 32.3895899,51.2130263 C34.3214511,51.3982327 40.2640379,52.5121307 41.4824921,51.0051383 C42.3146688,49.9606928 43.5492114,49.8405589 44.918612,50.2155081 C45.8818612,50.4693848 47.7908517,50.2849605 49.448265,49.6099893 C50.4061514,49.2170513 53.0574132,49.1928055 52.3135647,48.7953312 L52.3135647,48.7953312 Z" id="Fill-1" fill="#D31145" mask="url(#mask-2)"></path>
            </g>
        </g>
    </g>
</svg>